<svg id="Layer_1" data-name="Layer 1" xmlns="http://www.w3.org/2000/svg" viewBox="0 0 16 16"><g id="Logo_Bright" data-name="Logo Bright"><path d="M4.3,12.56a.55.55,0,0,1-.54-.43l-2-8a.56.56,0,0,1,.41-.67.55.55,0,0,1,.67.41l2,8a.56.56,0,0,1-.41.67Z"/><path d="M4.3,12.56l-.13,0a.56.56,0,0,1-.41-.67l2-8a.56.56,0,0,1,1.08.26l-2,8A.55.55,0,0,1,4.3,12.56Z"/><path d="M9.7,12.56l-.13,0a.56.56,0,0,1-.41-.67l2-8a.56.56,0,0,1,.67-.41.56.56,0,0,1,.41.67l-2,8A.55.55,0,0,1,9.7,12.56Z"/><path d="M13.7,12.56a.55.55,0,0,1-.54-.43l-2-8a.56.56,0,0,1,.41-.67.56.56,0,0,1,.67.41l2,8a.56.56,0,0,1-.41.67Z"/><path d="M9.7,12.56a.55.55,0,0,1-.54-.43l-2-8a.56.56,0,0,1,.41-.67.55.55,0,0,1,.67.41l2,8a.56.56,0,0,1-.41.67Z"/><path d="M5.7,12.56l-.13,0a.56.56,0,0,1-.41-.67l2-8a.56.56,0,1,1,1.08.26l-2,8A.55.55,0,0,1,5.7,12.56Z"/><path id="Rounded_Rect" data-name="Rounded Rect" d="M12.8,1.11a2.05,2.05,0,0,1,1.47.62,2.05,2.05,0,0,1,.62,1.47v9.6a2.12,2.12,0,0,1-2.09,2.09H3.2a2.05,2.05,0,0,1-1.47-.62,2.05,2.05,0,0,1-.62-1.47V3.2a2.05,2.05,0,0,1,.62-1.47A2.05,2.05,0,0,1,3.2,1.11h9.6M12.8,0H3.2A3.21,3.21,0,0,0,0,3.2v9.6A3.21,3.21,0,0,0,3.2,16h9.6A3.21,3.21,0,0,0,16,12.8V3.2A3.21,3.21,0,0,0,12.8,0Z"/></g></svg>